<svg width="60" height="60" viewBox="0 0 60 60" fill="none" xmlns="http://www.w3.org/2000/svg">
<path fill-rule="evenodd" clip-rule="evenodd" d="M30 60C46.5685 60 60 46.5685 60 30C60 13.4315 46.5685 0 30 0C13.4315 0 0 13.4315 0 30C0 46.5685 13.4315 60 30 60ZM25.0376 19.4295L22.8072 12.1342L20.3235 19.3473L12.696 19.2141L18.7885 23.8052L16.3049 31.0183L22.554 26.6426L28.6465 31.2337L26.4161 23.9383L32.6651 19.5627L25.0376 19.4295ZM49.8475 22.7712L49.0501 15.1843L45.2357 21.7909L37.7737 20.2048L42.8783 25.8741L39.064 32.4807L46.0331 29.3778L51.1377 35.0471L50.3403 27.4601L57.3095 24.3573L49.8475 22.7712ZM43.0433 41.9689C44.1143 46.15 39.8466 51.5109 31.3041 50.8696C23.3484 50.2723 19.9259 43.8136 21.5215 40.4348C22.8131 37.6998 24.8486 38.3157 27.8437 39.2219C29.3853 39.6884 31.1812 40.2318 33.2607 40.4348C35.5881 40.6619 37.4309 40.4333 38.8701 40.2548C41.2153 39.9638 42.4892 39.8058 43.0433 41.9689Z" fill="#FFA010"/>
</svg>
